# xmcd
#
# Track frame offsets:
#	150
#	18250
#	32690
#	49360
#	65075
#	78302
#	92120
#	107460
#	120820
#	135300
#	148025
#	161347
#	176222
#	190822
#	205910
#	220677
#	232167
#	247575
#	259575
#
# Disc length: 3763
#
# Revision: 2
# Processed by: cddbd v1.5.1PL0 Copyright (c) Steve Scherf et al.
# Submitted via: audiograbber 1.83.01
# Normalized: r1:DSETVAR1
#
DISCID=fb0eb113
DTITLE=Various Artist - NuTech A14
DYEAR=1900
DGENRE=various
TTITLE0=Vern Gosdin - Chiseled In Stone
TTITLE1=Clint Black - Better Man
TTITLE2=Dan Seals - BOP
TTITLE3=Reba McEntire - Whoever's In New England
TTITLE4=George Strait - The Chair
TTITLE5=Highway 101 - Whiskey, If You Were A Woman
TTITLE6=Holly Dunn - Daddy's Hands
TTITLE7=Keith Whitley - Homecoming "63
TTITLE8=Patty Loveless - If My Heart Had Windows
TTITLE9=Randy Travis - 1982
TTITLE10=Randy Travis - Diggin' Up Bones
TTITLE11=Ricky Skaggs - Heartbroke
TTITLE12=Ricky Skaggs - Highway 40 Blues
TTITLE13=Ricky Van Shelton - Somebody Lied
TTITLE14=Judds - Mama He's Crazy
TTITLE15=Whites - Hangin' Around
TTITLE16=Loretta Lynn - Coal Miner's Daughter
TTITLE17=Willie Nelson - Blue Eyes Crying In The Rain
TTITLE18=Willie Nelson - City Of New Orleans
EXTD=
EXTT0=
EXTT1=
EXTT2=
EXTT3=
EXTT4=
EXTT5=
EXTT6=
EXTT7=
EXTT8=
EXTT9=
EXTT10=
EXTT11=
EXTT12=
EXTT13=
EXTT14=
EXTT15=
EXTT16=
EXTT17=
EXTT18=
PLAYORDER=
